<svg version="1.1" id="Layer_1" xmlns="http://www.w3.org/2000/svg" xmlns:xlink="http://www.w3.org/1999/xlink" x="0px" y="0px"
     viewBox="0 0 218 149" style="enable-background:new 0 0 218 149;" xml:space="preserve">
<path id="path29_1_" class="st0" d="M2.11,70.96c0-22.64,7.66-42.61,23.22-60.28C30.96,4.15,35.5,1,38.62,1
	c1.08,0,2.27,0.24,3.11,1.09c0.84,0.85,1.44,1.69,1.44,2.91c0,1.69-2.03,4.24-5.99,8.23c-16.16,15.74-24.3,35.1-24.3,58.34
	c0,25.78,8.5,46.6,25.14,62.58c3.35,3.15,5.15,5.69,5.15,7.75c0,1.09-0.6,2.3-1.44,3.15c-0.84,0.85-2.03,1.45-3.11,1.45
	c-3.95,0-9.34-4.6-16.4-13.68C8.57,115.87,2.11,95.29,2.11,70.96L2.11,70.96L2.11,70.96z"/>
    <path id="path31_1_" class="st0" d="M216.14,76.65c0,22.64-7.66,42.61-23.22,60.28c-5.63,6.54-10.18,9.68-13.29,9.68
	c-1.08,0-2.27-0.24-3.11-1.09c-0.84-0.85-1.44-2.06-1.44-3.15c0-1.69,2.04-4.24,5.99-7.99c16.16-15.74,24.3-35.1,24.3-58.34
	c0-25.78-8.5-46.6-25.14-62.58c-3.35-3.15-5.15-5.69-5.15-7.75c0-1.09,0.6-2.3,1.44-3.15c0.84-0.85,2.04-1.45,3.11-1.45
	c3.71,0,9.34,4.6,16.4,13.68C209.32,32.11,216.14,52.69,216.14,76.65L216.14,76.65L216.14,76.65z"/>
    <path id="path37_1_" class="st0" d="M157.86,141.73H59.91c-3,0-5.99-2.42-5.99-6.06c0-3.33,2.4-6.06,5.99-6.06h97.95
	c3,0,5.99,2.42,5.99,6.06C163.86,139.3,161.46,141.73,157.86,141.73L157.86,141.73z"/>
</svg>